<svg id="logosandtypes_com" data-name="logosandtypes com" xmlns="http://www.w3.org/2000/svg" viewBox="0 0 150 150"><defs><style>.cls-1{fill:none;}.cls-2{fill:#0096d6;}.cls-3{fill:#fdb913;}.cls-4{fill:#4f2683;}.cls-5{fill:#bf311a;}</style></defs><path class="cls-1" d="M0,0H150V150H0Z" transform="translate(0 0)"/><path class="cls-2" d="M90.79,50.92,107.12,42a1.15,1.15,0,0,1,1.38,1.81L95.4,57.07c.38.65.73,1.3,1.06,2l26.86-6.85a61.64,61.64,0,0,0-20.2-26.82L89.06,49.23C89.67,49.77,90.23,50.34,90.79,50.92Z" transform="translate(0 0)"/><path class="cls-2" d="M68.52,29.17v11.2a32.47,32.47,0,0,1,4.41.6l8.3-16.62a1.15,1.15,0,0,1,2.17.48v.23s-1.88,11-3.17,18.3c.71.33,1.4.68,2.11,1.06l18-21A57.08,57.08,0,0,0,68.17,13.11H60.79a20.64,20.64,0,0,1,7.73,16.06Z" transform="translate(0 0)"/><path class="cls-2" d="M127.38,72.07a61.12,61.12,0,0,0-2.92-16.7L99.24,66.86q.27,1.2.45,2.43l18.5,2.11a1.14,1.14,0,0,1,.07,2.26L99.93,77a33.28,33.28,0,0,1-.43,3.31l25.56,10.63a68.24,68.24,0,0,0,2.32-18.86Z" transform="translate(0 0)"/><path class="cls-3" d="M68.44,44.92V81.48l3.62-4A6.26,6.26,0,0,1,80.71,77l10,8.43,4-4.64c4.3-16.84-9-34.87-26.31-35.83Z" transform="translate(0 0)"/><path class="cls-4" d="M99,84.87a1.8,1.8,0,0,0-1.84.41s-4.4,5-6,6.71c-2-1.72-13.38-11.33-13.38-11.33a1.66,1.66,0,0,0-2.31.16L68.87,88a1.69,1.69,0,0,0-.44,1.13v44.44a1.69,1.69,0,0,0,1.93,1.65c23.52-1.43,45.11-17.55,53.15-39.69Z" transform="translate(0 0)"/><path class="cls-5" d="M48,13H33a1,1,0,0,0-.76.33c-.84.46,0,120.08-.29,120.78a1.13,1.13,0,0,0,1,1.12H63.06a1.14,1.14,0,0,0,1.12-1.12v-105A16.25,16.25,0,0,0,48,13ZM44.19,94.79H38.44v-6h5.78Zm0-15.54H38.44v-6h5.78Zm0-15.56H38.44v-6h5.78Zm0-15.55H38.44v-6h5.78Zm0-15.41H38.44v-6h5.78ZM57.64,94.79H51.86v-6h5.78Zm0-15.54H51.86v-6h5.78Zm0-15.56H51.86v-6h5.78Zm0-15.55H51.86v-6h5.78Zm0-15.69H51.86v-6h5.78Z" transform="translate(0 0)"/></svg>